<?xml version="1.0" encoding="utf-8"?>
<!-- Generator: Adobe Illustrator 26.0.2, SVG Export Plug-In . SVG Version: 6.00 Build 0)  -->
<svg version="1.1" xmlns="http://www.w3.org/2000/svg" xmlns:xlink="http://www.w3.org/1999/xlink" x="0px" y="0px"
	 viewBox="0 0 1000 1000" style="enable-background:new 0 0 1000 1000;" xml:space="preserve">
<style type="text/css">
	.st0{fill:#FEFFDB;stroke:#B9FF38;stroke-miterlimit:10;}
	.st1{fill:#FEFFDB;stroke:#D91200;stroke-width:3;stroke-miterlimit:10;}
	.st2{fill:#E3000C;stroke:#1D1D1B;stroke-miterlimit:10;}
	.st3{fill:#FFEF82;}
	.st4{fill:#E3000C;stroke:#33FF89;stroke-miterlimit:10;}
	.st5{fill:#E3000C;stroke:#1D1D1B;stroke-width:4;stroke-miterlimit:10;}
	.st6{fill:#E30000;}
	.st7{fill:#37F400;stroke:#1D1D1B;stroke-width:4;stroke-miterlimit:10;}
	.st8{fill:none;stroke:#1D1D1B;stroke-width:4;stroke-miterlimit:10;}
	.st9{fill:#FEFFDB;stroke:#1D1D1B;stroke-width:3;stroke-miterlimit:10;}
</style>
<g id="Szinek">
	<path class="st0" d="M120.05,440.28c0,211.97,187.28,383.5,418.72,383.5c207.73,0,375.83-172.06,375.83-384.69
		c0-201.14-168.1-363.9-375.83-363.9C307.33,75.18,120.05,238.48,120.05,440.28z"/>
	<path class="st1" d="M365.32,360.4"/>
	<path class="st2" d="M365.32,358.57c1.29-5.18,6.36-22.78,23.62-35.74c15.36-11.54,31.36-12.64,37.02-12.77
		c5.29-0.43,14.43-0.49,24.89,3.19c12.54,4.41,20.5,11.9,24.26,15.96c2.68,1.81,10.19,7.37,14.04,17.87
		c3.5,9.55,2.03,17.83,1.28,21.06c-0.38,3.98-2.78,25.35-21.06,38.94c-9.01,6.7-18.26,8.81-23.62,9.57
		c-6.4,1.79-19.74,4.55-35.74,0.64c-11.96-2.93-20.58-8.4-25.53-12.13c-3.32-2.19-11.95-8.53-16.6-20.43
		c-3.6-9.22-3.08-17.37-2.55-21.38V358.57z"/>
	<path class="st2" d="M528.36,231.55c-6.23,1-16.1,3.46-26.17,10.21c-5.04,3.38-8.92,7.03-11.81,10.21
		c-2.4,3.08-5.79,8.22-7.98,15.32c-2.39,7.77-2.29,14.48-1.91,18.51c0.29,2.65,1.46,10.29,7.66,17.23
		c6.21,6.96,13.68,8.99,16.28,9.57c5.46,2.01,16.79,5.32,30.96,3.19c17.54-2.64,28.94-12.05,33.19-15.96
		c2.62-2.61,7.21-7.9,9.57-15.96c3.9-13.31-1.12-24.51-2.55-27.45c-3.03-4.29-8.68-11.11-17.87-16.6
		C545.58,232.6,533.92,231.64,528.36,231.55z"/>
	<path class="st3" d="M216.23,330.49c0,0,16.6-25.66,42.77-31.91s37.36,28.15,37.36,28.15c2.08,11.44,4.16,22.88,6.24,34.32
		l-5.35,23.97L216.23,330.49z"/>
	<path class="st4" d="M625.38,320.28c-5.45-0.06-12.51,0.44-20.43,2.55c-13.94,3.73-23.79,10.66-29.36,15.32
		c-3.87,3.66-8.47,8.7-12.77,15.32c-5.48,8.44-8.49,16.42-10.21,22.34c-0.61,3.21-1.84,12.02,2.55,21.7
		c5.31,11.69,15.19,16.63,17.87,17.87c5.73,3.23,13.44,6.87,22.98,9.57c8.83,2.5,16.73,3.49,22.98,3.83
		c6.76-0.14,16.86-1.2,28.09-5.74c7.24-2.93,12.98-6.52,17.23-9.66"/>
	<path class="st5" d="M700.06,476.9c-2.58-0.03-12.25,0.17-19.79,7.42c-2.99,2.88-4.73,5.98-5.74,8.3
		c-2.7,2.49-5.98,6.05-8.94,10.85c-4.59,7.47-6.31,14.59-7.02,19.15c-0.17,4.38,0.03,9.83,1.28,15.96
		c2.23,10.97,6.8,19.19,10.21,24.26c4.11,3.6,11.35,8.96,21.7,12.13c6.48,1.98,12.25,2.51,16.6,2.55c2.69-1.37,9.62-4.44,18.51-3.19
		c5.56,0.78,9.72,2.95,12.13,4.47c0.19-6.18-0.27-16.64-4.91-28.46c-5.27-13.43-13.37-22.08-18.07-26.44
		c-1.3-7.84-3.44-17.04-7.02-27.02c-2.56-7.12-5.41-13.42-8.23-18.86"/>
	<path class="st6" d="M467.72,472.01c2.93-5.71,8.87-15.51,19.79-24.26c10.96-8.78,21.86-12.44,28.09-14.04
		c6.46-0.97,14.99-1.61,24.89-0.64c11.15,1.09,20.27,3.85,26.81,6.38c4.97,2.76,14.17,8.74,21.7,19.79
		c6.94,10.18,9.3,20.02,10.21,25.53c1.13,4.43,2.39,11.65,1.28,20.43c-1.29,10.14-5.15,17.61-7.66,21.7
		c-6.6,4.89-13.19,9.79-19.79,14.68L467.72,472.01z"/>
	<path class="st7" d="M216.23,330.49"/>
	<path class="st7" d="M1069.51,316.5"/>
</g>
<g id="Vonalak">
	<path class="st8" d="M216.23,330.49c17.33-28.66,48.89-72.31,101.49-109.79c81.76-58.26,165.46-66.79,201.7-68.3
		c15.55-0.49,29.78,7.48,36.38,20.43c7.24,14.18,2.19,28.21,1.28,30.64c15.32,25.96,30.64,51.91,45.96,77.87
		c3.33,1.73,12.25,6.91,17.87,17.87c4.58,8.94,4.67,17.22,4.47,21.06c14.68,35.11,29.36,70.21,44.04,105.32
		c2.11,1.36,7.65,5.34,10.21,12.77c1.23,3.55,1.37,6.73,1.28,8.94c1.49,4.26,2.98,8.51,4.47,12.77
		c5.04,4.29,13.18,12.35,19.15,24.89c4.99,10.48,6.52,20,7.02,26.17c1.49,4.26,2.98,8.51,4.47,12.77c2.17,1.88,4.32,4,6.38,6.38
		c14.44,16.72,16.5,37.28,16.6,48.51c1.7,3.62,3.4,7.23,5.11,10.85c2.69,2.04,7.32,6.11,10.85,12.77c3.48,6.56,4.27,12.6,4.47,15.96
		c2.06,1.14,11.24,6.48,14.68,17.87c2.35,7.79,0.82,14.43,0,17.23c0.86,0.78,7.81,7.3,7.02,17.23c-0.62,7.85-5.83,14.78-13.4,17.87
		c-7.98-2.97-18.47-7.85-29.36-15.96c-8.22-6.11-14.5-12.46-19.15-17.87c-1.99,0.35-5.29,0.61-8.94-0.64
		c-8.85-3.04-11.78-12.25-12.13-13.4c-17.45-12.77-34.89-25.53-52.34-38.3c-1.85,0.25-5.56,0.49-9.57-1.28
		c-7.57-3.32-9.88-10.94-10.21-12.13c-7.23-4.47-14.47-8.94-21.7-13.4c-1.03,0.45-7.52,3.19-14.68,0
		c-6.76-3.01-9.16-9.09-9.57-10.21c-8.38-6.1-16.76-12.19-25.14-18.29c-0.98-0.71-1.96-1.43-2.94-2.14
		c-1.09,0.08-7.69,0.48-12.77-4.47c-3.18-3.11-4.15-6.74-4.47-8.3c-21.7-10.73-43.4-21.46-65.11-32.19l-18.51-11.21
		c-1.78-2.25-4.86-5.57-9.57-8.3c-5.97-3.46-11.6-4.26-14.68-4.47c-8.94-6.81-17.87-13.62-26.81-20.43
		c-6.92-1.67-15.53-4.38-24.89-8.94c-9.34-4.55-16.77-9.64-22.34-14.04c-17.45-14.47-34.89-28.94-52.34-43.4L216.23,330.49z"/>
	<path class="st8" d="M365.32,358.57c1.29-5.18,6.36-22.78,23.62-35.74c15.36-11.54,31.36-12.64,37.02-12.77
		c5.29-0.43,14.43-0.49,24.89,3.19c12.54,4.41,20.5,11.9,24.26,15.96c2.68,1.81,10.19,7.37,14.04,17.87
		c3.5,9.55,2.03,17.83,1.28,21.06c-0.38,3.98-2.78,25.35-21.06,38.94c-9.01,6.7-18.26,8.81-23.62,9.57
		c-6.4,1.79-19.74,4.55-35.74,0.64c-11.96-2.93-20.58-8.4-25.53-12.13c-3.32-2.19-11.95-8.53-16.6-20.43
		c-3.6-9.22-3.08-17.37-2.55-21.38V358.57z"/>
	<path class="st8" d="M528.36,231.55c-6.23,1-16.1,3.46-26.17,10.21c-5.04,3.38-8.92,7.03-11.81,10.21
		c-2.4,3.08-5.79,8.22-7.98,15.32c-2.39,7.77-2.29,14.48-1.91,18.51c0.29,2.65,1.46,10.29,7.66,17.23
		c6.21,6.96,13.68,8.99,16.28,9.57c5.46,2.01,16.79,5.32,30.96,3.19c17.54-2.64,28.94-12.05,33.19-15.96
		c2.62-2.61,7.21-7.9,9.57-15.96c3.9-13.31-1.12-24.51-2.55-27.45c-3.03-4.29-8.68-11.11-17.87-16.6
		C545.58,232.6,533.92,231.64,528.36,231.55z"/>
	<path class="st8" d="M625.38,320.28c-5.45-0.06-12.51,0.44-20.43,2.55c-13.94,3.73-23.79,10.66-29.36,15.32
		c-3.87,3.66-8.47,8.7-12.77,15.32c-5.48,8.44-8.49,16.42-10.21,22.34c-0.61,3.21-1.84,12.02,2.55,21.7
		c5.31,11.69,15.19,16.63,17.87,17.87c5.73,3.23,13.44,6.87,22.98,9.57c8.83,2.5,16.73,3.49,22.98,3.83
		c6.76-0.14,16.86-1.2,28.09-5.74c7.24-2.93,12.98-6.52,17.23-9.66"/>
	<path class="st8" d="M467.72,471.55c2.93-5.71,8.87-15.51,19.79-24.26c10.96-8.78,21.86-12.44,28.09-14.04
		c6.46-0.97,14.99-1.61,24.89-0.64c11.15,1.09,20.27,3.85,26.81,6.38c4.97,2.76,14.17,8.74,21.7,19.79
		c6.94,10.18,9.3,20.02,10.21,25.53c1.13,4.43,2.39,11.65,1.28,20.43c-1.29,10.14-5.15,17.61-7.66,21.7
		c-6.6,4.89-13.19,9.79-19.79,14.68L467.72,471.55z"/>
	<path class="st8" d="M700.06,476.9c-2.58-0.03-12.25,0.17-19.79,7.42c-2.99,2.88-4.73,5.98-5.74,8.3
		c-2.7,2.49-5.98,6.05-8.94,10.85c-4.59,7.47-6.31,14.59-7.02,19.15c-0.17,4.38,0.03,9.83,1.28,15.96
		c2.23,10.97,6.8,19.19,10.21,24.26c4.11,3.6,11.35,8.96,21.7,12.13c6.48,1.98,12.25,2.51,16.6,2.55c2.69-1.37,9.62-4.44,18.51-3.19
		c5.56,0.78,9.72,2.95,12.13,4.47c0.19-6.18-0.27-16.64-4.91-28.46c-5.27-13.43-13.37-22.08-18.07-26.44
		c-1.3-7.84-3.44-17.04-7.02-27.02c-2.56-7.12-5.41-13.42-8.23-18.86"/>
	<path class="st8" d="M683.51,487.09"/>
	<path class="st8" d="M216.23,333.04c3.26-6.01,10-16.45,22.34-24.89c7.66-5.24,15.02-8.03,20.43-9.57c3.57,0,12.39,0.47,21.06,6.38
		c5.74,3.91,9.1,8.61,10.85,11.54c3.61,5.68,10.03,17.45,11.49,33.78c1.51,16.93-3.08,30.06-5.73,36.28
		c4.51-12.38,12.07-29.05,24.88-46.49c11.94-16.25,24.55-27.89,34.47-35.74c11.17-10.25,24.32-21.14,39.57-31.91
		c19.11-13.5,37.39-23.9,53.62-31.91c16.49-7.9,35.46-15.85,56.81-22.98c18.22-6.08,35.38-10.62,51.06-14.04"/>
	<path class="st8" d="M216.23,333.04c3.26-6.01,10-16.45,22.34-24.89c7.66-5.24,15.02-8.03,20.43-9.57
		c2.43-0.59,7.52-1.46,13.41,0.36c4.88,1.5,7.98,4.14,9.74,5.65c4.62,4,7.03,8.4,8.77,11.91c5.66,11.46,10.34,20.96,11.49,33.78
		c1.51,16.93,6.34,7.23,19.15-10.21c11.94-16.25,24.55-27.89,34.47-35.74c11.17-10.25,24.32-21.14,39.57-31.91
		c19.11-13.5,37.39-23.9,53.62-31.91c16.49-7.9,35.46-15.85,56.81-22.98c19.91-6.64,37.38-11.06,51.06-14.04"/>
	<path class="st8" d="M120.05,440.28c0,211.97,187.28,383.5,418.72,383.5c207.73,0,375.83-172.06,375.83-384.69
		c0-201.14-168.1-363.9-375.83-363.9C307.33,75.18,120.05,238.48,120.05,440.28z"/>
	<path class="st9" d="M299.48,379.33c2.02,2.1,4.5,4.38,7.48,6.6c5.08,3.79,9.99,6.24,13.96,7.83c7.72,2.4,17.66,6.33,28.26,12.94
		c8.97,5.59,15.94,11.57,21.11,16.68c1.35,1.78,3.33,4.02,6.13,6.13c3.89,2.94,7.7,4.37,10.26,5.11c3.28,2.04,6.55,4.09,9.83,6.13
		c8.69,1.62,20.01,4.63,32.34,10.55c9.53,4.58,17.23,9.72,23.15,14.3c5.25,2.5,15.78,1.68,15.74,7.49"/>
	<path class="st9" d="M776.13,655.63c-0.03,3.26-1.74,6.25-4.49,7.76c-3.34,1.82-7.67,1.16-10.55-1.7L739,644.32l-28.98-21.11
		c-9.53-5.9-19.06-11.8-28.6-17.7c-1.26-1.58-3.99-4.56-8.51-6.47c-3.53-1.49-6.69-1.72-8.6-1.7c-3.6-1.82-7.21-3.63-10.81-5.45
		c-3.93-1.65-9.04-4.29-14.3-8.51c-3.95-3.17-6.96-6.42-9.19-9.19c-5.11-2.38-10.21-4.77-15.32-7.15c-4.04-1.54-8.25-3.34-12.6-5.45
		c-11.75-5.7-22.95-26.06-29.28-18.38"/>
</g>
</svg>
